<svg width="13" height="16" viewBox="0 0 13 16" fill="none" xmlns="http://www.w3.org/2000/svg">
<path d="M0.941728 9.12105C1.22291 8.84712 1.60495 8.69315 2.00339 8.69315C2.40183 8.69315 2.78387 8.84712 3.06505 9.12105L4.98009 10.9691L4.98009 1.45402C4.98009 0.650985 5.65098 0 6.47855 0C7.30613 0 7.97702 0.650985 7.97702 1.45402L7.97702 11.0796L9.93851 9.13268C10.5236 8.56373 11.4732 8.56276 12.0596 9.1305C12.6459 9.69824 12.6469 10.6197 12.0618 11.1887L7.61739 15.574C7.33607 15.847 6.95438 16.0003 6.55647 16C6.50752 16 6.45758 16 6.40663 16C5.90177 15.9775 5.4426 15.7097 5.18538 15.2875L0.938731 11.1843C0.353757 10.6165 0.353757 9.69611 0.938731 9.12832L0.941728 9.12105Z" fill="#747C43"/>
</svg>
