<svg width="112" height="112" viewBox="0 0 112 112" fill="none" xmlns="http://www.w3.org/2000/svg">
<circle cx="55.6475" cy="55.903" r="53.9876" transform="rotate(90.6917 55.6475 55.903)" stroke="white" stroke-width="2"/>
<path d="M33.5338 59.1059C34.6273 58.0343 36.1025 57.4424 37.6334 57.4608C39.1642 57.4793 40.6247 58.1067 41.692 59.2044L48.9615 66.6108L49.4164 28.9347C49.4548 25.755 52.0636 23.2085 55.2433 23.2469C58.423 23.2853 60.9695 25.894 60.9311 29.0737L60.471 67.1874L68.1004 59.5693C70.3756 57.3436 74.0244 57.3838 76.25 59.6591C78.4757 61.9343 78.4355 65.583 76.1603 67.8087L58.8743 84.9667C57.7804 86.0349 56.3066 86.6241 54.7778 86.6044C54.5897 86.6021 54.3978 86.5998 54.202 86.5974C52.2634 86.4851 50.5119 85.4031 49.5438 83.7197L33.4237 67.2755C31.2032 65.0001 31.2472 61.3557 33.5219 59.1346L33.5338 59.1059Z" fill="white"/>
</svg>
