<svg width="47" height="49" viewBox="0 0 47 49" fill="none" xmlns="http://www.w3.org/2000/svg">
<path d="M45.3007 24.9066C45.3007 37.6986 35.3464 47.9997 23.1504 47.9997C10.9543 47.9997 1 37.6986 1 24.9066C1 12.1146 10.9543 1.81348 23.1504 1.81348C35.3464 1.81348 45.3007 12.1146 45.3007 24.9066Z" stroke="#5E734D" stroke-width="2"/>
<path d="M24.6111 34.578C24.1544 34.1046 23.8977 33.4615 23.8977 32.7906C23.8977 32.1198 24.1544 31.4766 24.6111 31.0032L27.6921 27.7791H11.8289C10.4901 27.7791 9.40479 26.6496 9.40479 25.2563C9.40479 23.863 10.4901 22.7335 11.8289 22.7335H27.8763L24.6305 19.4312C23.6819 18.4461 23.6803 16.8473 24.6268 15.8601C25.5733 14.873 27.1096 14.8713 28.0581 15.8563L35.3692 23.339C35.8244 23.8126 36.0799 24.4552 36.0794 25.1251C36.0794 25.2075 36.0794 25.2916 36.0794 25.3774C36.042 26.2274 35.5954 27.0004 34.8916 27.4335L28.0508 34.5831C27.1042 35.5679 25.5698 35.5679 24.6232 34.5831L24.6111 34.578Z" fill="#5E734D"/>
</svg>
