<svg width="37" height="40" viewBox="0 0 37 40" fill="none" xmlns="http://www.w3.org/2000/svg">
<path d="M27.5441 24.7847C26.363 24.7858 25.2295 25.2954 24.387 26.2039L12.5102 20.3953C12.5102 20.1972 12.5102 20.0322 12.5102 19.8342C12.5102 19.6362 12.5102 19.4712 12.5102 19.2896L24.387 13.4645C25.1309 14.2648 26.1043 14.7579 27.1418 14.8599C28.1793 14.9619 29.217 14.6665 30.0787 14.024C30.9403 13.3815 31.5727 12.4314 31.8686 11.3351C32.1644 10.2388 32.1054 9.06386 31.7016 8.00989C31.2978 6.95592 30.574 6.08787 29.6532 5.55318C28.7325 5.01849 27.6715 4.85012 26.6505 5.07667C25.6295 5.30322 24.7113 5.91071 24.0521 6.79598C23.3928 7.68125 23.0331 8.7897 23.0339 9.93309V10.4941L11.1571 16.3028C10.5232 15.6192 9.71949 15.1564 8.8468 14.9725C7.97411 14.7885 7.07136 14.8917 6.25188 15.2689C5.43241 15.6462 4.73272 16.2807 4.24066 17.0929C3.74859 17.9051 3.48608 18.8588 3.48608 19.8342C3.48608 20.8096 3.74859 21.7633 4.24066 22.5755C4.73272 23.3877 5.43241 24.0222 6.25188 24.3995C7.07136 24.7767 7.97411 24.8799 8.8468 24.6959C9.71949 24.512 10.5232 24.0492 11.1571 23.3656L23.0339 29.1907V29.7353C23.0339 30.7144 23.2984 31.6716 23.794 32.4857C24.2896 33.2998 24.994 33.9343 25.8181 34.309C26.6423 34.6837 27.5491 34.7817 28.424 34.5907C29.2989 34.3997 30.1025 33.9282 30.7333 33.2359C31.3641 32.5435 31.7936 31.6614 31.9676 30.7011C32.1417 29.7408 32.0523 28.7454 31.711 27.8408C31.3696 26.9362 30.7915 26.163 30.0498 25.6191C29.3081 25.0751 28.4361 24.7847 27.5441 24.7847Z" fill="#5E734D"/>
</svg>
