<svg width="15" height="24" viewBox="0 0 15 24" fill="none" xmlns="http://www.w3.org/2000/svg">
<path d="M6.83565 0.228516C7.19413 0.228516 7.49227 0.519071 7.5541 0.902232L7.56587 1.04987V5.97801C7.56587 7.96458 6.31184 9.62171 4.64562 10.0025L4.64499 22.4051C4.64499 22.8588 4.31806 23.2265 3.91477 23.2265C3.55629 23.2265 3.25814 22.9359 3.19631 22.5528L3.18455 22.4051L3.18539 10.0028C1.59781 9.64079 0.384108 8.12013 0.272117 6.25955L0.263672 5.97801V1.04987C0.263672 0.596249 0.590602 0.228516 0.993891 0.228516C1.35237 0.228516 1.65052 0.519071 1.71235 0.902232L1.72411 1.04987V5.97801C1.72411 7.05106 2.33391 7.96391 3.18498 8.30204L3.18455 1.04987C3.18455 0.596249 3.51148 0.228516 3.91477 0.228516C4.27325 0.228516 4.5714 0.519071 4.63322 0.902232L4.64499 1.04987L4.64602 8.30146C5.43092 7.98892 6.01029 7.18743 6.09478 6.22247L6.10543 5.97801V1.04987C6.10543 0.596249 6.43236 0.228516 6.83565 0.228516ZM14.1378 0.228516C14.4963 0.228516 14.7945 0.519071 14.8563 0.902232L14.8681 1.04987V22.4051C14.8681 22.8588 14.5411 23.2265 14.1378 23.2265C13.7794 23.2265 13.4812 22.9359 13.4194 22.5528L13.4076 22.4051V13.3702H11.217C10.8585 13.3702 10.5603 13.0797 10.4985 12.6965L10.4867 12.5489V4.3353C10.4867 2.06718 12.1214 0.228516 14.1378 0.228516Z" fill="#5E734D"/>
</svg>
