<svg width="12" height="17" viewBox="0 0 12 17" fill="none" xmlns="http://www.w3.org/2000/svg">
<path d="M11.25 0H0.75C0.335781 0 0 0.356768 0 0.796875V1.32812C0 1.76823 0.335781 2.125 0.75 2.125C0.75 5.14532 2.34425 7.69429 4.52631 8.5C2.34425 9.30571 0.75 11.8547 0.75 14.875C0.335781 14.875 0 15.2318 0 15.6719V16.2031C0 16.6432 0.335781 17 0.75 17H11.25C11.6642 17 12 16.6432 12 16.2031V15.6719C12 15.2318 11.6642 14.875 11.25 14.875C11.25 11.8547 9.65575 9.30571 7.47369 8.5C9.65575 7.69429 11.25 5.14532 11.25 2.125C11.6642 2.125 12 1.76823 12 1.32812V0.796875C12 0.356768 11.6642 0 11.25 0ZM8.90381 12.75H3.09625C3.62934 11.1962 4.72425 10.0938 6 10.0938C7.27566 10.0938 8.37069 11.196 8.90381 12.75ZM8.90441 4.25H3.09619C2.87463 3.60413 2.75 2.8803 2.75 2.125H9.25C9.25 2.8822 9.12541 3.60543 8.90441 4.25Z" fill="#5E734D"/>
</svg>
